# xmcd CD database file
#
# Track frame offsets:
#	150
#	22581
#	48903
#	70884
#	97888
#	117469
#	140831
#	159401
#	189863
#	208797
#
# Disc length: 3169 seconds
#
# Revision: 0
# Processed by: cddbd v1.5.2PL0 Copyright (c) Steve Scherf et al.
# Submitted via: CDex 1.70beta2
#
DISCID=800c5f0a
DTITLE=Various Artist - 023 - Synthon - Geh voran
DYEAR=2004
DGENRE=Country
TTITLE0=Synthomania
TTITLE1=Vermiﬂt du mich?
TTITLE2=Gift
TTITLE3=Geh voran
TTITLE4=Ich hab dir gesagt!
TTITLE5=Seelenverk‰ufer
TTITLE6=1000 Fragen
TTITLE7=Mein Freund
TTITLE8=Bild von dir
TTITLE9=Der Weg
EXTD=YEAR: 2004
EXTT0=
EXTT1=
EXTT2=
EXTT3=
EXTT4=
EXTT5=
EXTT6=
EXTT7=
EXTT8=
EXTT9=
PLAYORDER=
